<?xml version="1.0" standalone="no"?>
<svg viewBox="0 0 200 200" xmlns="http://www.w3.org/2000/svg">
  <path fill="#FF0066" d="M45,-71.2C57.9,-70.5,67.6,-57.6,66,-43.7C64.3,-29.8,51.2,-14.9,49.3,-1.1C47.5,12.7,56.8,25.5,53.9,31.5C51.1,37.5,36,36.8,24.9,38.8C13.9,40.9,7,45.6,-0.9,47.2C-8.8,48.8,-17.6,47.2,-28.7,45.3C-39.9,43.3,-53.5,41,-55.7,33.4C-57.9,25.8,-48.7,12.9,-50.5,-1C-52.2,-14.9,-64.8,-29.8,-66.1,-43.4C-67.3,-57,-57.2,-69.3,-44.3,-70C-31.4,-70.7,-15.7,-59.9,0.2,-60.2C16,-60.5,32.1,-71.9,45,-71.2Z" transform="translate(100 100)" />
</svg>
