<?xml version="1.0" standalone="no"?>
<svg viewBox="0 0 200 200" xmlns="http://www.w3.org/2000/svg">
  <path fill="#FF0066" d="M23.3,-41.6C31.3,-35.8,39.6,-31.7,37.8,-25.1C36.1,-18.4,24.4,-9.2,27.4,1.8C30.5,12.7,48.3,25.5,51.3,34.2C54.2,43,42.3,47.8,31.3,55.5C20.2,63.3,10.1,74,4.7,65.9C-0.8,57.8,-1.6,30.9,-11.4,22.5C-21.2,14.1,-40.1,24,-53.2,23.4C-66.3,22.7,-73.7,11.3,-65.7,4.6C-57.7,-2.1,-34.3,-4.2,-27.2,-15.3C-20.1,-26.4,-29.3,-46.5,-27.5,-55.9C-25.7,-65.4,-12.8,-64.1,-2.6,-59.6C7.7,-55.2,15.3,-47.5,23.3,-41.6Z" transform="translate(100 100)" />
</svg>
