<?xml version="1.0" standalone="no"?>
<svg viewBox="0 0 200 200" xmlns="http://www.w3.org/2000/svg">
  <path fill="#FF0066" d="M29,-54.2C38.8,-44.6,48.7,-39.2,60.3,-30.9C71.8,-22.6,85.1,-11.3,88.1,1.8C91.1,14.8,84,29.6,75.1,42.5C66.2,55.5,55.5,66.6,42.7,73C29.9,79.4,14.9,81.2,2.8,76.3C-9.3,71.5,-18.7,60,-25,49.8C-31.3,39.6,-34.6,30.8,-43,22.7C-51.3,14.6,-64.8,7.3,-71,-3.6C-77.2,-14.5,-76.2,-29,-66.9,-35.4C-57.6,-41.9,-40,-40.3,-27.5,-48.3C-14.9,-56.3,-7.5,-73.9,1.1,-75.8C9.6,-77.6,19.3,-63.8,29,-54.2Z" transform="translate(100 100)" />
</svg>
