<?xml version="1.0" standalone="no"?>
<svg viewBox="0 0 200 200" xmlns="http://www.w3.org/2000/svg">
  <path fill="#FF0066" d="M35.7,-55.2C47.9,-54.8,60.6,-48.6,66.4,-38.4C72.2,-28.2,71,-14.1,69.7,-0.7C68.4,12.6,67,25.3,62.6,37.8C58.3,50.4,50.9,62.9,40,72C29,81,14.5,86.7,0.7,85.4C-13.1,84.2,-26.2,76.2,-33.1,64.8C-39.9,53.3,-40.5,38.5,-50.1,27.2C-59.7,15.8,-78.3,7.9,-82.6,-2.5C-86.8,-12.8,-76.7,-25.6,-68.7,-39.7C-60.7,-53.9,-54.8,-69.3,-43.7,-70.3C-32.6,-71.4,-16.3,-58.1,-2.3,-54.2C11.7,-50.2,23.5,-55.6,35.7,-55.2Z" transform="translate(100 100)" />
</svg>
