<?xml version="1.0" standalone="no"?>
<svg viewBox="0 0 200 200" xmlns="http://www.w3.org/2000/svg">
  <path fill="#FF0066" d="M39.2,-65.3C52.1,-60.4,64.7,-52.5,66.7,-41.2C68.7,-29.8,60.1,-14.9,58.2,-1.1C56.4,12.8,61.4,25.6,60.2,38.3C58.9,50.9,51.4,63.5,40.4,65.2C29.3,66.8,14.7,57.4,2.9,52.3C-8.8,47.3,-17.6,46.6,-31.1,46.3C-44.5,46,-62.5,46.3,-71.8,38.6C-81.2,31,-81.9,15.5,-77.5,2.5C-73.2,-10.5,-63.8,-21,-54.5,-28.7C-45.3,-36.5,-36.1,-41.5,-27,-48.6C-17.9,-55.7,-9,-64.9,2.1,-68.6C13.1,-72.2,26.3,-70.2,39.2,-65.3Z" transform="translate(100 100)" />
</svg>
