<?xml version="1.0" encoding="utf-8"?>
<!-- Generator: Adobe Illustrator 26.0.2, SVG Export Plug-In . SVG Version: 6.00 Build 0)  -->
<svg version="1.1" id="Layer_1" xmlns="http://www.w3.org/2000/svg" xmlns:xlink="http://www.w3.org/1999/xlink" x="0px" y="0px"
	 viewBox="0 0 200 200" style="enable-background:new 0 0 200 200;" xml:space="preserve">
<style type="text/css">
	.st0{fill:#3A86FF;}
</style>
<path class="st0" d="M126,30.4c11.6,12,23.3,18.8,37.1,29.2c13.6,10.4,29.4,24.6,32.9,41c3.6,16.3-4.9,34.9-15.4,51.1
	c-10.5,16.3-23.2,30.2-38.4,38.3c-15.2,8-32.9,10.3-47.3,4.1c-14.3-6-25.5-20.5-32.9-33.2s-11.4-23.8-21.3-34
	c-9.8-10.2-25.8-19.3-33.2-33S1.4,62,12.4,54c11-8.2,31.9-6.1,46.7-16.2C74,27.8,82.8,5.7,93,3.3C103,1.1,114.5,18.4,126,30.4z"/>
</svg>
